<?xml version="1.0" encoding="utf-8"?>
<!-- Generator: Adobe Illustrator 21.1.0, SVG Export Plug-In . SVG Version: 6.00 Build 0)  -->
<svg version="1.1" id="Layer_1" xmlns="http://www.w3.org/2000/svg" xmlns:xlink="http://www.w3.org/1999/xlink" x="0px" y="0px"
	 viewBox="0 0 24 24" style="enable-background:new 0 0 24 24;" xml:space="preserve">
<style type="text/css">
	.st0{fill:#242424;}
</style>
<title>Search</title>
<desc>Created with Sketch.</desc>
<g id="Flows">
	<g id="AC-Drug-Search-_x28_active_x29_" transform="translate(-544.000000, -294.000000)">
		<path id="Search" class="st0" d="M553,310c-3.9,0-7-3.1-7-7s3.1-7,7-7s7,3.1,7,7S556.9,310,553,310L553,310z M563.4,310.6
			c-0.5-0.5-1.3-0.7-1.9-0.5l-1.5-1.5c1.2-1.5,2-3.5,2-5.6c0-5-4-9-9-9s-9,4-9,9s4,9,9,9c2.1,0,4.1-0.7,5.6-2l1.5,1.5
			c-0.2,0.7,0,1.4,0.5,1.9l4,4c0.4,0.4,0.9,0.6,1.4,0.6s1-0.2,1.4-0.6c0.8-0.8,0.8-2,0-2.8L563.4,310.6z"/>
	</g>
</g>
</svg>
